<svg xmlns="http://www.w3.org/2000/svg" viewBox="0 0 532.33 661.44">
  <path d="M266.13 0C112.87 1.55 7.73 45.1 7.73 45.1c-60.9 438.29 258.4 616.34 258.4 616.34S585.51 483.46 524.61 45.1c0 0-105.22-43.54-258.48-45.09z" class="st0" style="fill:#303c8e;fill-opacity:1;stroke-width:.70239037"/>
  <path d="M265.02 26.84c-138.65 1.4-233.77 40.8-233.77 40.8-55.1 396.5 233.77 557.58 233.77 557.58S553.95 464.2 498.86 67.63c0 0-95.19-39.4-233.84-40.8z" class="st0" style="fill:#fff;stroke-width:.63542342"/>
  <path d="M513.37 54.65S412.8 12.78 266.2 11.3C119.54 12.78 18.96 54.65 18.96 54.65c-58.23 421.57 247.17 593.02 247.17 593.02S571.6 476.22 513.37 54.65zm-247.24 571.4S-17 456.54 36.45 66.51c0 0 95.24-33.23 229.68-34.63 134.44 1.4 229.68 34.63 229.68 34.63 53.45 390.1-229.68 559.52-229.68 559.52z" class="st1" style="fill:#303c8e;fill-opacity:1;stroke-width:.70239037"/>
  <path d="M194.42 541.12V192.03c-45.3 3.73-93.5 11.52-142.59 25.22 8.36 161.13 83.59 265.85 142.59 323.87z" class="st2" style="fill:#004494;stroke-width:.70239037"/>
  <path d="M337.85 541.2c59.14-58.17 134.64-163.17 142.72-324.93-8.57-2.46-63.14-17.56-142.72-24.1z" class="st3" style="fill:#e2001a;stroke-width:.70239037"/>
  <path d="M483.57 234.81l-.63-4.63-.98-3.16-1.06-1.9-.98-.56-1.54.07-1.97.63-3.1 1.47-2.73 1.76-3.02 2.18-2.81 2.25-2.74 2.66-3.3 3.38-2.46 2.88-2.74 3.23-2.1 2.53-1.27 1.75-1.12 1.27-.57.77-.63-.14-.49-.28-.21-.78-.07-.84-.56-2.18-1.27-3.09-1.4-2.95-1.9-2.95-2.1-2.88-1.9-2.1-1.76-1.76-1.47-.84-1.06.07-1.19.2-1.2 1.34-1.68 2.6-1.97 3.51-1.75 4.29-2.6 5.69-1.97 5.9-1.26 6.25-1.48 8.85-.49 4.5-.56 6.03-.21 4.85-.21 4.08.56 2.38 1.05.7.92 1.55-.21 2.04-.85 1.82-1.33 2.46-3.72 5.9-2.67 4.5-3.73 5.55-4.77 8.92-2.95 7.3-1.4 4.29-.92 6.67v4.56l.21 4.15.56 2.53.92 2.17 1.33.43 1.47.84-.2 1.68-1.27 1.34-1.83 1.9-3.65 3.58-7.23 6.95-4.92 5.2-3.8 5.83-1.89 3.37-.77 3.02-.56 2.18-1.2 2.74-1.26 2.18-.92 5.4.14 4.85-.14 3.8 1.4 2.73.85.92.14 1.05-.84.77-1.4 1.13-3.66 2.6-4.42 3.08-4.64 4.64-3.37 4.14-3.8 6.12-2.66 6.1-1.97 5.41-1.2 4.92-.55 3.23.42 2.67.2 2.39-.2 1.2-.92 1.19-2.45 1.2-4.57 2.31-3.23 1.55-4.78 1.96-4.42 2.46-3.73 3.44-2.52 3.51-2.04 3.16-2.74 4.15-2.53 4.92-2.1 4.84-1.27 4.85-.91 4.77-.85 2.67-1.82 1.83-5.2 3.51-9.27 5.34-7.59 5.97-4.91 4.57-3.45 4.07-2.88 3.65-3.72 5.34-3.16 5.2-2.04 5.06-1.33 3.65-.7 4.56v4.22l.28 3.58.98 4.21.77 2.88.07 2.46v1.69l-.28.98-.77.14-.91-.14-.56-1.2-.99-2.38-.63-3.65-1.76-3.23-1.61-3.87-.98-2.8-.29-3.38.36-3.51.98-3.93.98-3.52.07-1.9-.28-2.1-1.33-2.18-1.69-1.54-1.26-1.13-.35-1.82.2-3.51.15-1.69-.85-2.1-1.54-3.1-2.32-2.53-2.18-2.17-1.68-1.76-.85-1.76-.28-2.03-.14-3.16-.63-1.83-1.97-2.18-2.6-1.47-1.61-.91-.91-1.48-.28-1.55-.21-1.54-.85-1.33-.7-1.48-.42-.91-1.83-1.27-2.46-.35-1.68.5-1.83.9-.98.92-1.05 1.69-.64 2.1.14 1.97.21 2.39-.49 1.33-.84 1.27-1.26 1.4-.7 1.76.2 2.53.21 1.82.64 1.69.28 1.2.28 1.33-.21 1.54-.92 1.4-.9 2.18-.43 2.25.42 2.18 1.34 1.47 1.82 1.06 1.48.42 1.61.35 1.69.42 1.26.98.5 1.48-.36 1.05-1.05.14-1.48-.49-1.4-.98-.56-1.06-1.13-.9-2.1-.15-1.62.14-1.4-.14-1.2-.35-.7-1.2-.91-1.47-1.2-1.54-.2-1.83-.22-7.24v-8.92l.35-4.5.92-3.22.9-2.18 1.2-1.47 1.2-.85.56-1.2-.35-1.19-1.06-.77-1.75-.7-2.25-1.05-1.05-1.34-.56-1.4-.22-2.53-.2-2.88-.22-1.62-1.26-.91-1.69-.7-.91-1.83v-2.6l.07-2.1-1.54-1.62-1.9-.77-.98-.35-.43-1.06-.2-2.18.56-2.66-.22-1.97-1.26-1.48-2.46-1.96-1.97-1.76-2.31-2.39-1.62-1.12-1.75-.7-1.27.07-1.47.49-1.06.98-.7 1.13-.35 1.19-.21 1.4-.35 1.7-.56.76-.57.99-.7.2-2.1.36-1.41.07-.84.14-.43.7-.14 1.48-.42 1.61.07 1.48-.63.63-1.26-.07-.21-1.34-.7-1.61-.78-2.25v-1.54l-.28-1.76-.28-.98.42-1.4.35-2.12.42-1.33 1.06-1.69.98-1.19 1.26-1.76 1.27-1.68.35-1.27-.28-1.68-1.13-1.34-1.12-.84-.77-.91-.77-1.34.07-1.47.42-1.4.7-.85.77-1.2.07-2.38-.2-2.74-.29-1.55-.7-2.1-1.55-2.32-1.68-1.76-1.83-2.1-1.54-1.83-1.06-1.33-.14-1.2.63-.91.7-.77.29-1.2-.35-.98-.78-1.34-.84-1.96-1.05-2.32-.85-1.2-1.19-2.45-.84-1.76-2.18-1.4-2.39-.14-2.53.49-1.82.84-1.55 1.33-.63 1.55v1.47l-.14 1.9-1.12 1.13-1.27.7-1.33.77-.7 1.48-.7 1.4-.08 1.69.7 1.54.64 1.34.63 1.12.42 1.4-.42 1.2-.77 1.47-.57 1.13-1.12.14-.56-.63-.35-1.13-.64-1.54-.84-.85-1.68-.84-.92-1.12-.14-1.48-.14-2.1.07-1.9.63-1.55.99-2.46 1.12-2.03.77-1.76.7-1.68.92-2.04.91-1.4.78-.99.14-1.61-.78-1.41-.98-1.12-1.26-1.4-.85-1-.77-.55-.77-.85-.07-.77.49-1.12 1.33-.99 1.13-1.12 1.12-.7.91-1.13.5-1.33-.21-1.76-.22-1.96-.28-1.4-.84-1.48-1.12-1.27-.92-.84-1.12-.84-1.12-.78-.7-1.05.06-.98.99-.63 1.05-.22 1.12-.98.22-1.76-.78-2.66-1.05-1.69-1.55-1.69-1.05-1.12-.91-1.9-.56-2.31-.29-2.11-.07-1.97-.49-1.54-.98-1.76-.98-.77-1.97-.77-1.69-.14-2.17.28-1.69 1.26-1.69 1.62-.7 1.33-.42 1.76-.35.84h-.5l-2.38.21-1.48 1.12-.98 1.27-.91 1.47-.99 1.34-.07 1.9.29 1.33 1.47 1.47.63 1.55.42 1.33-.56 1.13-1.68.98-1.34.91-.98 1.4-.5 2.19.08 1.9-.07 1.19-.7.28-1.13-.07-.77-.42-.56-1.06-.43-1.33.36-1.2.42-1.33.77-1.69.14-1.75.56-2.04.21-2.04-.07-1.9c-.07-.2-.91-1.6-.91-1.6l-1.05-.92-1.34-.5-.63-.55.07-1.34.5-.98 1.96-3.3 1.75-2.88 1.97-1.9 1.62-2.1 1.68-1.41 1.2-1.76.28-3.44.28-3.72-.07-1.83-.63-1.9.28-1.54 1.12-1.55 1.69-1.47 1.33-1.34.91-2.03.28-1.9-.2-1.54-1.34-1.55-2.1-1.26-1.55-.99-.64-1.82.92-1.55.77-1.54.98-2.81-.07-1.97-1.47-1.2-1.4-.7-.92-.49-.14-1.12-.42-3.37-.21-2.6-.42-1.48-.78-1.75-1.33-2.11-1.12-1.9-1.34-1.54-1.68-.99-1.34-.07-1.2.64-1.05 1.26-.28 1.4.07 1.13-.42 1.05-.56.5-1.34.42-1.61.35h-1.76l-1.75.07-1.27.56-.77 1.4.07 1.4v2.12l.07 1.47-.07 1.55.07 1.33.42 1.12-.2.64-1.34.2-1.48-.06-.84-.5.07-1.05.56-1.4.42-1.4.56-1.55.07-2.04-.14-2.46-.2-1.75-.43-1.4-.28-.78.56-.91 1.4-1.2 2.19-.98 2.52-1.4 2.74-1.76 1.27-1.48.77-1.61.28-1.76.07-1.83-.63-1.54-1.27-1.2-.9-1.19-.15-.77.42-1.2.92-.9.77-1.06.56-1.55.28-1.33-.14-1.4-.42-1.41-1.12-1.48-.64-1.19-.56-.5-.42-1.33.28-1.05.5-.77.41-2.18.07-1.62-.7-1.68-.77-1.06-.91-.98-.07-.98.42-.84.63-.99.42-1.54-.77-1.55-1.2-.98-.63-.7-.42-2.18-.21-2.46-.14-1.97-.42-1.4-1.27-2.1-.98-1.41-.63-1.06-1.9-.49-2.32.07-3.16.35-2.46 1.76-1.4 2.32-.77 1.75-.63 2.25-.29 1.9-.9 1.12-1.55 1.62-.57 2.31.78 1.55.77 1.4.63.85-.2.84-.43.63-1.26.14-1.27.85-.56.84.21.98.21.84.42 1.2.14.77-.35.5-1.47-.15-.78-.42-1.12-1.12-.28-.92-.21-1.33-.14-1.9.63-1.54 1.05-1.83.92-1.9.9-1.75.5-2.81-.35-1.9-.98-1.68-1.62-1.62-3.23-.28-2.18.63-1.12.07-.84-.49.07-1.2.2-1.82.78-1.4.5-2.04.06-2.81-.42-2.53-.84-1.75-1.13-1.55-2.03-1.33-1.69-.43-1.61-.28-.99-.91-.56-1.69-1.97-1.75-1.68-1.34-2.6-.63-2.39.28-1.47 1.2-.92 1.2-.63 1.89-.07 1.75-.07 1.62-.5 1.2-1.82.98-1.68 1.05-1.06 1.33-1.12 1.69-.28 1.4-.21 2.25.63 1.9.77 1.47.84 1.55.15.91-1.55 1.13-1.69 1.68-.9 1.48-.29 1.75.21 2.11.84 1.55 1.9 1.61 2.04 1.4 2.46 1.34 1.19 1.12.91 1.55.63 2.04.43 2.24-.36 2.81-.28 2.11.36 2.74 1.26 2.25 1.26 1.33.85.63-.21.99-.92 2.32.21 2.8.92 1.83 1.12 1.76.91 1.26.07 1.48-.77 2.24-1.2 2.11-1.6 2.67-.57 2.04-.21 2.31.5 2.32.9 2.4 1.62 2.03 1.9 2.46 1.68 1.68.77 1.2-.28.77-.63.98-.28 1.62.21 1.68.77 1.62 1.13.84 1.96 1.48.99.77.98 1.2.5 1.33-.15 1.26.14 3.72.5 1.55.7.98 1.4 1.06 1.27.91 1.96.7 1.13.14.84.64.28.9-.28 1.27-.5 1.2v1.68l.43 2.25 1.33 1.4 1.69.92 3.72 1.68 2.18.64 2.6.77 1.54.42-.07 1.2-.2 2.38-.92-.07-1.2-.63h-1.96l-2.32.77-1.47.92-.78 1.9-.2 2.24-.92 2.53-.21 2.74.14 3.72.77 3.51 1.4 1.69 1.2 1.12 1.33.42.29.78-.29 1.12-.63 1.69.14 2.8.99 2.53 2.1 1.9 3.1 1.9 2.38 2.24.5 1.9.49 1.83.2 2.1.57 1.69 1.47 1.26 2.04 1.2 2.39.77 1.12.07.07.5.21 1.05-.14.84-.28 1.68.5 1.27 1.26.98 2.25 1.76 1.96.98h5.9l-.14.84-1.2.99-1.33.14-2.32.35-2.03.63-.84 2.18-.22 2.53.78 2.6 1.33 2.1 1.97 1.76.84.63.07 1.4.14 6.05.84 2.32 1.34 2.24 1.76 1.4 1.4 1.2 1.4 1.4.29 1.27.84 2.46 2.04 1.61 2.6 1.13 2.73 1.33.85 1.69-.21 2.32-.92 1.82.78 2.25 1.96 1.2 2.32.56 1.97 1.12 1.2 1.69.76 1.75.78 1.69.77 1.12 1.47.56 2.4.57 3.64.28 3.45.07 2.45.77 1.97.42 1.97.91 1.82 1.13 2.04 1.33.7.84.07.64-.28.56-1.26.14-1.69-.21-1.61-.28-2.74-.5-2.67.22-1.9.7-1.12 1.54-.77 3.02.14 2.53.9 2.81 1.34 2.6 1.48 1.9.91.2-.07 1.2.42 2.25.85 1.83 1.4 1.26 3.02 1.2 2.04.2-.77 2.04.07 3.94 1.61 2.52 3.02 2.25 1.48.85 2.24.63.5.07V515l1.12 1.9 1.47 1.12 2.67.84 2.4.42 1.82.42 1.54 1.13 1.27 2.17 1.26 2.32 2.32 1.33 2.8.64 2.82-.07 2.6.14 1.4.77 1.34 1.26.07 1.48-.56 1.33-.99 1.06-.28 1.68.42 2.18 1.34 2.18 1.9 3.02 1.68 2.6 2.18 3.23 2.38 2.74 2.6 1.2 1.97.76 1.4.85v1.2l.43 2.8 1.4 2.39 1.62 1.97 2.31 1.9 2.4 1.12 1.54.28.98.35.07.98.07 3.51.28 1.76 1.13 1.12 1.68.99 3.1.28 2.87.2 1.27.57 1.26 1.55 1.13 1.54 1.96.84 1.9-.14 3.8-.07 3.57.07 4.43.99 2.88 1.33 2.25 1.34 2.67 1.9 3.23 2.59 2.24 3.16 1.69 2.74 1.12 1.55v1.05l-.63 1.33-1.4 1.69-1.69 2.32-2.8 2.6-3.03 2.6-1.12.84-.64 1.2.78.98 2.67.14 1.68-.57 1.9-2.03 2.32-2.04 2.31-2.25 1.9-2.03 1.27-.99 1.47-.28 1.12.42 1.76 1.34 2.81 2.67 1.83 2.67 1.82 2.66 2.1 2.25 1.27 1.55 1.55-.07.98-.56v-1.2l-.91-1.4-6.32-8.43-2.81-4.29-.7-1.75.35-1.48 1.54-1.61 2.25-1.55 2.8-1.2 2.82-1.19 4.56-1.54 4.57-1.27 3.86-.84 4.57-1.2 3.93-1.19 3.23-1.33 2.53-1.27 3.72-1.68 3.24-2.04 2.52-1.9 3.8-2.95 3.23-2.66 3.58-3.66 4.42-4.84 3.59-4.43 3.23-4.99 2.46-4.07 2.31-4.28 1.34-3.66 1.12-3.02.56-1.54.07-.99-.28-.49-.63-.28-.7.07-1.26.35-2.81.85-1.9.77-3.44.5-5.06.76-3.23.78-2.04-.07-.28-.64.21-.98.21-.91.56-.42 1.27-.14 1.26.07 1.55-.78 1.9-.49 3.72-1.75 3.37-1.62 2.67-.5 3.65-1.54 2.95-1.26 4.5-.98 3.02-1.83 3.65-3.16 4.21-3.51 2.88-2.46 2.88-3.16 3.02-3.87 2.11-3.16 1.55-3.72 2.38-3.37 2.46-3.44 2.39-3.1 2.53-3.79 1.75-3.09.5-1.2.56-1.6.2-1.2.08-1.4-.21-.85-.21-.77-1.13-.21-1.26.21-1.62.14-1.54.56-1.2.21-1.68.5-1.55.2-1.26.15h-.98l-.92-.14-.07-.85.78-.63 1.12-.42 2.25-.77 1.82-1.06 1.97-1.05 1.83-1.12 1.26-1.06 2.18-1.12 3.02-2.25 3.16-2.25 2.8-2.18 3.38-2.66 4.07-3.1 2.81-3.01 3.16-3.24 2.81-3.58 3.02-4.5 2.46-4.84 1.69-4.28 1.26-3.66 1.62-4.84 1.68-4.15 1.97-3.86.7-2.67.28-2.88.21-1.62 1.62-1.47 2.18-2.1 2.67-2.18 2.6-3.17 2.1-3.09 2.32-3.93 2.25-5.2 1.61-3.86 1.97-7.8 1.55-5.4 1.33-7.17.5-3.8.34-2.52.28-2.25-.2-1.47-.71-1.13-.91-.49-1.27.07-1.26.28-1.27.77-1.68.64-1.4.84-1.13 1.12-1.26 1.06-1.4.98-1 .84h-1.26l-.56-.56v-1.05l.7-.92 1.13-.7 1.96-1.12 1.76-1.2 2.67-2.31 4.28-2.88 2.4-1.76 1.75-1.68 3.02-3.17 3.37-4.07 3.3-5.55 2.39-3.65 1.9-3.51 1.96-3.37 1.97-4.5 1.4-4.14 1.97-5.83 1.2-4.43 1.05-3.72.98-4.92.42-4.63-.2-3.16-.92-2.67-1.2-1.2-.7-.98.07-.84.56-.85.92-.77 1.75-.98 1.27-1.2 1.05-1.61.63-2.53 1.34-4.15.7-4.2.84-5.14.57-6.04.98-12.5zm-416.8 36.03l-1.4-1.82-1.4-3.37-1.06-5.2-.49-3.51-.14-3.16.14-2.53 1.9 4.07 1.2 3.58.55 4.29.92 4.21.49 2.32zm25.15 35.48l-1.76-.5-2.24-.84h-1.69l-1.05-.21-.21-1.83-.14-1.82-.64-1.69-.9-1.68-.92-1.69-.21-1.4.63-1.06 1.69-1.68.9-1.48-.06-1.61-.91-1.9-.92-1.4-1.47-1.41-.28-1.12-.07-1.69.56-1.4.91-.85h.77l-.35 1.4.35 1.41.85 1.4.56.99.77.63 1.05 1.27.7 1.33.08 1.34-.42 1.75-.64 1.2-.7 1.19-.35 2.1.5.99 1.47 1.55 1.61 1.19 1.2 1.33.77 1.34.42 1.33.77 1.9.14 1.33zm8.43 50.57l-1.69.2-1.75-.62-1.34-1.55.14-2.1.36-1.7.7-.34 1.82 1.33 1.4 1.69.92 2.03zm6.18 8.85l-.35.7h-1.05l-1.34-1.33-1.05-1.83-.35-1.48-.21-1.05.14-.84.56-.7 1.96 1.33 1.34 1.47.5 2.04zm20.16 39.9l-.98 2.1-.21 1.97-.78 1.05-1.33-.56-.35-1.9-.21-2.18.28-2.45-.14-2.18.14-1.55.63-.98.91-.5 1.34 1.13.91 1.9.21 2.25zm39.33 71.64l-1.05.14-1.48-.28-1.47-.43-1.2-1.26-.9-1.69-.15-1.68.77-1.2.92-.77 1.75.28 1.48 1.13.98 1.47.63 1.97zm1.83-9.2l-.5.77-.98.07-1.12-1.2-.21-2.1v-1.4l-1.12-.85-.57-1.55.29-1.19.28-1.33-.14-1.55-.78-1.33-.7-1.4-1.12-1.06-.57-1.34.78-.63 1.05.28 1.34 1.13.7 1.82.77 2.46.5 1.76.62 1.9.78 2.87.77 2.04v1.83zm5.83 17.98l-1.83.07-1.12-.78-.42-2.24-.07-1.4 1.4-.15 1.62.7.91 1.48.07 1.33zm8.85.2l-.91.85-1.13-.56-1.68-1.97-1.34-2.18-.56-1.9.77-.55 1.62.07 1.61.63 1.48 1.05.5 1.76zm15.31 43.98l-1.47.14-.99-.42-1.54-1.2-.56-1.2-.21-1.4 1.33-.84 1.26.14.92.5.98 1.05.63 1.05.07 1.33zm8.85-1.2l-1.05.5-1.13-.29-1.26-.84-1.97-2.1-1.54-2.11-.63-1.83-.36-3.86-.2-3.3.06-2.81.07-2.11.92-.77 1.2.42.2 1.61.56 3.16.92 4.36.7 2.6.77 2.6 1.27 1.47 1.12 1.06.63 1.19zm25.43 26.27l-1.34.21h-.98l-.56-.49-.28-.98 1.05-.7 1.69.2.91.64zm13.34 6.82l-.49.77-1.47-.28-.92-.14-.98-.85-.5-1.12.43-1.05 1.26-.5 1.27.08.84.77.77 1.26zm2.32 4.14l1.27-.28 1.26.7.91.98v1.2l-1.12.28-1.83-.14-.56-.91-.21-.85zm8.36 13.56l-.28 1.61-1.62-.28-1.68-1.4-2.32-1.69-2.32-2.88-1.12-2.32-.5-1.68.64-1.27 1.33-.14 2.18.35 1.97.85 1.26 1.61.77 1.4.92 2.32.7 1.97v1.55zm-1.05 25.7l-.7 1.06-1.41.42-1.05.07-.43-.63 1.06-.99 1.2-.7.83-.14.64-.07zm6.95-6.88l-1.4 1.76-1.62.98-.98.77-1.06-.14-.28-1.05 1.2-1.34 1.4-1.4 1.26-1.2 1.06-.7.98.21.14.5zm7.45-2.1l.98 2.03 1.26 1.83.7 1.61.29 1.2-.85.28-1.26-.85-2.67-2.88-2.53-2.88-2.67-2.95-3.23-3.44-1.12-2.03.2-1.48.15-1.33.98-.7 1.97.41 1.61 1.83 2.32 2.88 1.27 2.04 1.33 2.39zm17.2-36.53l-2.6 1.97-2.73 2.52-2.53 2.88-2.4 2.53-1.75 2.04-1.47 2.04-.99 2.67-.63 2.66-.42 1.97v1.2l-.63.14-.77-.15-.21-.7v-3.37l.84-3.3.56-3.3.7-.98 3.3-2.46 2.88-3.16 3.23-2.67 2.46-1.83 1.76-1.47 1.76-.5h.7l.28.64zm18.48-28.73l1.2-.63 1.26-.42h1.05l.14.91-.56 1.4-1.13 1.34-1.47.35-1.2-.35v-.98zm17.56 1.62l-.57.98-.56 1.05-1.9 1.2-1.6.98-1.98.07-2.1.21-1.34.84-1.96 1.4-2.6 2.12-2.53 2.17-2.32 1.76-2.67 1.69-2.25 1.61-.91.63-.77-.2-.28-.5.35-.77 1.05-1.34 3.16-3.5 2.39-2.82 2.39-2.46 4-2.88 3.16-2.03 2.4-1.69 2.87-1.47 1.62.2 1.75.57 1.06 1.12zm33.5-46.15l-2.39 1.76-1.96.98-.92.49-.56-.42-.35-1.62.42-1.96 1.4-1.55 1.48-1.33 1.97.35 1.12 1.26zm38.63-63.08l-1.4.57-1.62.7h-1.26l-.14-.84.28-1.62.7-1.54.63-1.34.85-1.4.84-.57.84.5.35.9.63 1.06.07 1.97zm12.01-72.48l2.25-.14 1.05.49.57 1.33-.21 1.76-.7.35-.92.35-1.26-1.2-.64-.7-.35-1.05zm3.66 29.22l-2.25 4.35-2.88 5.55-3.16 6.32-2.81 5.76-1.2 2.39-1.26 1.4-.63-.49.14-1.26 1.05-2.74 2.53-5.34 2.67-5.2 2.67-5.26 1.61-4.08 1.2-1.82 1.61-.92.85.63zm.84-19.39l-.99-.63-.98-1.69.07-1.4.7-1.13h1.34l1.26 1.27.56 1.61-.9 1.48zm9.97 6.53l-1.4 2.04-2.04 2.1-1.54 1.7-1.97 2.03-1.06.63-.84-.35-.2-.7.48-1.83.85-2.25.77-1.68-.91-1.55-.57-.9 1.06-1.2 1.61-1.48 2.11-2.74 1.33-1.05 1.27-.5.56 1.83.28 2.46.35 1.4zm5.9-68.9l-.84-.77.07-1.48.42-.84 1.12-.28.85.49.63.98-.56 1.34-.85.84zm5.62 17l-.98 1.2-.92.41-1.19-.63-.42-1.69.21-1.61.91-1.34 1.34-.2 1.05.34.42.92.21.77zm2.04-17.63l-1.27 3.58-.98 2.25-.98 1.2-1.48.27-.91-.49-.63-1.12-.21-1.27.56-1.33.77-1.2.98-1.33.78-1.55.77-2.03.77-1.55.56-.7 1.27-.07.7.63.07 2.04zm9.62 3.09l-1.12.14-1.2-.77.07-1.06.57-1.33 1.12-.78.98-.14.77.28.99.78.07 1.05-1.13.98zm9.9 18.75l-1.4 2.04-1.83 2.03-1.47 2.11-1.34 1.4-1.12.15-.5-.63.29-1.13 1.26-1.82 1.34-1.97 1.4-1.76 1.62-1.33.98-.7 1.06-.57.42.5zm3.17-41.51l-.36 2.04-1.26 2.6-.63 2.45-.21 1.76.56.98.91.64.84.84-.35 1.26-1.26.78-1.12 1.33-1.06.28-1.61-.7-.57-2.6v-4.85l.99-2.95 1.68-3.02 1.62-2.1 1.26-.22.57.78z" class="st5" style="fill:#1a171b"/>
  <path d="M268.1 591.95l3.85-3.37 4.71-2.81 6.67-2.25 8.43-2.18 9.06-3.02 7.45-3.51 7.94-4.78 7.16-5.97 6.88-7.3 6.11-9.13 4.57-6.89 2.04-4.28.2-1.12-2.24-.08-3.72.7-4.5.85-5.34 1.05-4.14.7-4.57 1.34-4.28 1.55-5.9 2.95-7.38 4.7-5.54 4.57-6.33 5.83-4.7 5.12-2.95 3.59-2.88 4-1.13 2.18-.42 1.75.7.78 2.18-.7 3.94-2.75 6.39-4.07 5.48-3.65 7.09-4.08 7.24-4.77 5.05-4.08 4.78-3.72 3.93-3.37 2.74-1.83 1.27-.77h1.4l-.07.91-1.05 2.11-3.23 3.37-4.08 4.64-3.65 3.65-4.64 3.8-5.62 3.65-5.76 3.09-7.8 4.5-4.84 2.66-4.92 2.67-4.28 2.39-4.28 2.46-3.45 1.33-2.8.92-.99-.7.21-2.54.42-3.02.28-2.74-.49-1.82-1.26-.63-1.55.28-.14 1.05.5 1.2.2 2.8-.2 2.88v5.48l.13 2.04.57 1.12zm38-75.5l-1.9.7-2.6 1.82-2.6 1.12-3.1 1.62-2.87 1.9-3.37 2.73-3.24 2.88-4 3.66-6.81 8.21-2.46 3.38-2.04 3.16-2.1 3.72-2.18 4.57-1.48 4.07-1.05 4.07-.56 3.1-.21 2.31v1.62l.7.42 1.61-1.9 2.32-2.53 2.88-4.28 1.76-3.37 2.46-4.64 1.96-3.65 2.88-4.85 2.74-3.37 2.88-3.58 1.83-2.6 3.02-3.86 1.68-2.6 1.4-1.69 1.27-1.26 1.55.35.49 1.47-1.33 2.46-1.27 2.67-1.97 2.53-2.88 2.53-2.8 3.09-3.45 3.86-2.88 4.29-1.96 4-1.55 4.5-2.46 3.79-2.24 2.95-1.13 2.39-.84 1.26.42.63 1.12-.98 3.24-2.39 4.07-4.21 5.13-4.5 2.88-3.16 3.44-2.46 3.86-3.58 3.51-4.35 3.16-6.04 2.25-5.97 1.69-5.76 1.47-5.97.42-3.1zm21.34 13.97l-.63-.84.77-1.55 2.67-2.67 3.3-3.16 4.22-3.3 5.06-3.65 4.63-3.66 4.85-2.8 4.35-2.46 2.04-2.11 6.32-6.32 3.44-3.3 2.81-2.46 1.76-1.97 1.26-1.05.14-1.13-1.26-.2-1.76.7-2.45 1.75-3.52 3.1-1.68.83-1.4 1.27-.92.77.21.99.84.42-.63.98-1.76-.07h-1.26l-.84.84-3.02 1.83-2.67 1.83-4.92 3.09-4 3.02-3.3 2.6-4.78 2.94-3.23 2.32-3.8 3.3-2.24 2.04-1.97 2.81-1.61 1.05-1.62-.42.56-1.9 1.48-2.1 2.6-4.64 4.07-5.34 5.97-7.3 4.57-4.35 6.95-5.83 6.4-4.29 4.63-2.88 2.18-1.54.56-1.48.98-.63 2.18-.56 3.09-.28 3.58-1.55 3.3-2.1 3.44-1.27 3.87-.98 2.67-.22 1.19.64.28 1.2-.91 1.82-1.83 2.25-1.68 3.44-2.53 3.93-2.53 4.5-2.32 3.86-2.8 3.58-1.41 2.39-2.67 3.58-3.65 3.65-4.71 3.87-4.57 3.3-4.77 2.25-5.48 2.45-5.62 2.46-3.37 1.55-3.23 1.75-2.11.92zm26.76-62.51l-.07 3.44-1.75 5.97-1.69 5.34-2.6 3.72-2.38 3.09-3.59 2.04-3.37 2.52-3.23 2.81-3.58 2.6-3.72 4.57-3.59 3.93-3.58 4.57-3.37 3.58-1.69 2.6-.9 1.68-.85-1.33.91-2.32 1.9-4 2.74-5.62 4.98-7.8 5.9-8.57 3.03-4 2.73-2.95 2.32-2.67 1.69-.84 1.2.35.98.56.98-1.4.07-1.83-1.55-.98-2.38.77-3.24 1.97-4.35 4.14-3.16 3.16-2.18 3.3-2.8 4.08-1.9 3.79-2.67 4.92-2.11 4.63-2.18 4.22-2.18 3.5-1.68 2.68-1.05 1.47-.99.42-.14-.98v-2.32l.84-4.77 1.4-5.2 1.84-4.43 2.03-4.77 3.23-6.25 2.88-5.48 2.88-5.13 3.59-3.02 3.93-2.39 5.13-2.67 5.05-2.18 3.1-1.68 2.87-1.76 2.53-1.4 2.1-.28 1.41.63zm69.47-53.46l-1.97 3.3-1.47 3.03-1.2 2.38-1.05 3.66-.84 2.8-1.9 3.8-1.26 2.25-1.48 2.8-2.53 4.78-3.37 4.92-2.53 3.93-2.73 2.95-3.73 3.44-3.86 3.1-4.92 3.58-5.05 3.09-4.64 3.09-3.51 1.54-2.46 1.34-1.9 1.33-2.1 1.62-3.45 1.4-2.1 1.06-1.34-.7.28-1.06 1.69-2.18 2.8-3.44 6.05-6.88 4.92-4.7 6.39-5.7 6.6-5.34 6.67-4.63 4.57-4.36 4.28-4.07 4.08-4.07 2.17-3.24 2.4-3.86 2.1-3.8.42-1.19-1.26-.14-1.4 1.2-1.97 1.68-2.46 2.81-2.32 3.37-1.83 2.6-4.56 4.36-5.34 4.91-4.7 4.08-5.7 4.42-6.25 5.13-5.05 4.85-5.48 5.48-2.81 3.44-1.97 2.8-2.04 3.73-1.96 3.58-1.06 2.18-.77 1.05-1.2.5-1.75-.43-.5-1.47.15-2.88 1.54-4.85.99-4.21 1.05-1.9 1.48-1.47.56-2.88.42-2.53 1.9-3.72 2.67-4.15 4.91-5.48 5.62-5.83 4.5-4.42 5.05-4.36 4.57-3.5 5.13-3.6 4.77-3.01 4.85-2.46 5.13-2.67 4.63-2.18 3.66-1.33 2.38-.5h1.83zm-59 35.97l2.74-2.88 1.97-3.16 2.8-3.17 1.55-2.17 1.62-2.11 3.16-2.18 3.16-3.44 2.04-3.09 1.05-3.23.28-3.16.14-3.72-.21-2.67-1.05-1.34-1.69.7-2.46 1.62-3.86 2.39-3.93 2.46-4.36 3.23-5.34 4.42-3.86 4.85-3.02 4.28-2.46 4.71-1.97 5.4-1.47 5.63-.63 5.4.35 2.89 1.47.42.78-1.27 1.4-.28 2.32-.28 2.39-.21.77-.98.77-2.53 1.62-4.08 1.2-3.93 1.47-4.35 1.26-3.87 1.83-4.07 1.96-3.58.5-1.97.7-1.47 1.61-.36 1.62-.2 1.2-.85 1.12-1.26 1.05-.99v1.13l-1.12 1.2-1.9 2.1-1.55 2.8-2.03 3.45-2.04 4.21-1.2 3.87-1.12 2.46-.63 1.9z" class="st6" style="fill:#dcdcdd;fill-opacity:1"/>
  <path d="M387.24 422.4l-.35-6.67-.14-10.04 1.2-6.4 2.24-5.48 3.8-8.35 1.68-4 1.54-3.87 1.4-1.97.36-2.03-.63-1.06-1.62.56-2.04 2.95-3.09 3.87-2.38 4.56-1.76 4.29-2.32 6.74-1.4 3.86-1.27 4.71-1.54 4.21-2.04 2.11-1.47.35-1.34-.56-.77-2.18-.28-4 1.68-5.69.92-4.21 2.31-5.41 2.95-5.41 3.3-4.78 3.94-5.05 5.06-4.64 4.42-4.07 3.51-3.52 2.11-2.31.7-1.48 1.13-.35 1.33 2.39 1.2 2.46.7 3.37.2 3.44-.62 3.44-1.76 4.15-2.39 5.05-2.8 4.5-4.01 7.3-2.39 5.41-1.9 4.92-1.75 5.55-1.27 5.48-1.05 3.72-.14 2.03-.98 1.55zm9.48-5.69l.14-2.95 1.27-1.82.2-3.73 1.9-4.7 3.3-5.55 3.8-6.25 3.23-5.41 2.18-4.5 2.95-4.28 4.21-4.43 5.69-5.47 5.62-3.45 4.63-2.6 5-2.66 3.01-2.74 1.76-1.13 1.68-.07.35 1.62-.7 5.06-1.4 8.35-1.9 6.54-3.16 8.21-2.6 5.83-3.23 7.17-5.27 6.18-3.44 2.6-4.78 2.39-5.05 1.61-3.44.7-1.9.29-1.05-.92.77-1.05 1.75-2.6 2.81-3.02 4.22-4.22 3.65-3.79 4.43-4 4-3.93 3.16-3.94 3.37-4.7 2.74-4.71 1.55-3.16.98-2.18-.42-1.47-1.76.2-.84 1.62-1.48 1.69-1.82 2.53-2.74 4-2.46 2.67-2.6 2.88-4.14 4.21-4.22 4.71-6.6 6.46-3.58 4.22-2.39 3.72-.98 2.95-3.3 4.5-1.69 1.4-1.69 1.33-1.75.35zm22.69-63.07l-.56 2.74-1.06 3.23-.98.77-.91-.7-1.48-4-.7-6.33-.14-6.6 1.2-7.73 1.68-6.46 1.4-5.34-.28-5.26-1.68.84-1.2 3.58-2.03 5.9-1.13 5.76-1.05 6.4-.42 5.12-.35 2.67.14 1.12-1.48-.2-1.75-1.13-1.27-.56-.77.63-.99 1.61-.49 1.69-1.12 1.69-1.76.35-.7-.56-.5-1.83.15-5.2 1.26-7.94 2.74-8.14 3.8-8.43 5.05-7.73 4.5-7.16 3.44-3.8 1.69-4.21.77-.77 1.33.56 1.27 1.97 1.9 3.37.56 3.44.2 5.48-1.33 5.9-2.1 7.72-2.6 5.48-1.34 2.81-.77 4v10.4zm4 3.58l.42 3.1.85.62 1.26-1.47.84-3.02 1.9-5.83 2.18-6.18 2.46-3.94 4.56-6.88 4.64-6.04 4.56-5.55 3.44-4.35 4.64-6.26 3.58-4.98 1.76-2.6 1.26-.63 1.76.07v1.75l-.63 3.16-1.76 3.8-4.14 6.67-3.87 4.78-4.42 4.98-4.36 4.78-5.12 6.1-2.4 3.8-2.8 4-1.4 3.3-.64 2.33-.35 2.31.7.7 1.48-.28.84-1.75 2.18-2.04 4.98-3.44 4.29-2.67 5.2-4.07 4.91-6.04 5.62-8.78 3.51-7.66 3.52-8.5 2.17-6.6 1.76-7.17 1.05-6.74.14-4.35-.7-2.04-1.4.28-2.67 1.4-4.29 1.97-4.07 2.95-3.37 2.74-2.81 2.46-1.97 1.97-2.53.84-4.28 3.8-3.02 3.79-6.04 7.23-3.51 4.92-2.74 4.63-1.48 3.16-1.75 2.32-.36 2.39-.28 3.51-1.2 2.67-1.33 2.1-.56 3.1-.2 4.77zm11.03-55.07l-.5 2.11-.13 1.83.7.2 1.05-.98 1.97-2.1 2.04-2.32 1.2-3.3-.08-3.58-.42-4.5.14-8.57.07-9.41 1.33-5.97 2.04-4.85 2.04-5.2.07-3.86-2.1-5.4-1.48-4.01-3.3-4.15-2.18-3.23-1.69-1.82-1.47 1.12-2.25 4.29-3.3 6.95-2.81 7.37-1.55 5.06-1.68 6.89-.84 7.02-.64 7.37-.28 6.54.42 2.6 1.34 1.4 1.61 1.05 1.83.85 1.83 1.68 2.1-.28 1.4-1.82.92-3.94.07-6.18.07-21.84.56-3.23.92-2.74 1.9-1.27.7 1.83-.99 5.83-.42 8.64.21 14.6.63 7.03.78 3.8-.14 3.44-.64 2.52z" class="st6" style="fill:#dcdcdd;fill-opacity:1"/>
  <path d="M477.04 225.12l-7.58 5.34-3.66 3.79-4.5 4.14-4.14 4.78-3.65 4.43-3.8 6.8-3.01 7.38-2.6 8.22-.91 5.76.2 7.45 1.7 6.6 1.26 1.83h1.61l1.2-1.48 1.33-2.6.21-5.76 1.9-4.35 2.67-4.57 4.35-4.92 3.58-4.98 2.95-5.2 2.46-4 2.18-3.52 1.12-3.5 1.06-2.04 1.12-.15.35 1.48-.42 3.02-1.05 4-1.55 4.22-1.9 3.86-2.45 3.86-2.32 3.24-1.97 3.02-2.46 3.86-1.82 4-.7 1.97.28 1.61 1.61.22 2.25-1.2 5.06-2.88 4.21-2.6 2.81-2.46 3.1-2.95 1.47-3.3 1.4-5.69.42-7.02.7-12.57.29-6.89-.78-5.55-1.12-4-1.33-1.33z" class="st6" style="fill:#dcdcdd;fill-opacity:1"/>
  <g style="fill:#dcdcdd;fill-opacity:1">
    <path d="M250.64 580.71l-2.39-1.47-4.42-1.2-2.81-.35-5.83-.63-3.8-.35-1.82-.5-.99-1.47-1.75-1.47-1.97-.84-3.72-.42-2.1-.22-.85-.9-.84-1.62-.07-2.74-.7-2.67-1.76-1.62-2.53-1.68-3.93-2.04-1.4-1.69-.64-3.02-.63-3.02-1.9-.77-2.74-.84-3.09-2.6-2.1-3.02-.85-2.95-.91-2.46-2.4-2.18-.7-1.47v-1.69l1.27-1.05 1.83-.21 2.74.56 3.3-.07 1.75-.63 1.4-.7 2.05.63 2.1 1.12 3.16 1.83 1.83 2.31 1.2 1.9.56 1.83.9.84 1.83.28 3.73.14h1.96l1.62 1.69 1.54 3.23 1.06 3.37.7 3.51.21 1.9.42 1.12 1.69.14 2.39-.14h2.67l1.75.7.28 1.69.07 2.53.92 1.54 2.8 2.4 1.76 1.82 1.69 2.32.42 1.54-.28 1.34-1.2.28-2.31-1.34-3.94-2.46-3.86-2.38-4.21-3.3-8.08-7.52-4.08-5.06-5.76-6.53-4.07-4.43-3.58-1.26-1.76-.07.21 1.33 1.2 1.4 5.48 6.19 5.83 6.4 5.26 6.74 6.32 6.8 5.27 4.15 4.78 2.6 6.04 1.05 3.37-.35 1.76.78 2.17 2.67 1.9 1.54zm-22.9-76.84l3.3.64 1.55 2.17 1.05 2.53.42 1.76 1.2 1.82 2.03 1.48 2.04 1.68 1.34 1.83 1.05 2.67.91 3.51 1.55 3.37 1.82 2.04 2.4 2.74 1.47 3.51.77 2.81-.14 3.02-1.27 2.1.43 1.2 2.67 1.48 2.38 2.74.35 2.03-.9 3.59-.36 4.14-.28 3.51v1.83l-.14.98-.91.28-.78-1.26-1.54-3.16-1.9-2.32-2.53-4.21-2.6-5.62-.84-4.43-1.61-4.92-1.76-5.47-1.69-4.36-2.17-3.58-.92-2.67-.42-2.25-1.05-2.1-1.62-.15-.84 1.48-.28 2.32.77 4.28 2.39 4.5 2.32 3.09 1.4 1.9.35 2.66.35 3.73.7 3.37.78 2.88.7 1.54.28 1.9-.56.98-1.68-.77-2.25-.77-1.97-.35-1.4-.78-1.4-1.75-.43-2.46-.35-2.1-.63-1.48-.42-1.83v-1.55l-1.9-1.47-2.32-.77-2.39-.56-1.26-1.13-.35-2.53.42-1.9 1.4-1.82.85-2.1-.7-1.83-.92-1.76-.63-1.47-.91-2.6v-1.76l.7-2.18 1.54-1.75.57-.56.56-2.04-.21-2.53.28-2.88.7-1.2 2.04-.77zm-17.07 27.82V512.5l1.06-3.65 1.61-2.88 1.13-1.26.98-1.62-1.12-.5-2.74-.34-1.83-1.83-1.2-2.6-.35-2.53-.2-3.16-1.27-1.4-1.76-.91-.35-2.32-.28-2.74.21-2.04-1.33-.84-2.74-.5-.84-1.82-.07-3.02.2-2.32-.42-2.39-1.47-1.12-1.76-1.2-1.4-1.19-1.83-1.9-1.61-1.19-.78-.77-1.12-.63-2.04.84-.98 2.1-.7 2.04-.7 1.97-.36.77h-1.54l-1.55.85-1.47 1.12-.35 2.04 1.4 2.31 2.04 1.2 1.33 2.04.5 1.82v2.18l.56 1.54 1.82 1.4 1.48 1.55 1.61 1.48v4.7l-.14 2.6.99 1.69 2.03 1.55 1.9.9 1.34.78 1.12-.2v-1.27l-.56-2.32-1.4-2.81-1.76-5.9-.64-4.57.14-7.51.99.07 1.96 2.6 1.97 3.58.21 3.44.42 3.65 1.13 2.67 1.2 1.83.41 1.26-1.26.85.35 1.4.98 2.53 3.23 7.23 1.62 5.48 1.47 4.85.7 3.8.08 4.35-.14 2.6 1.2.84zm-17.28-17.07l-.35 3.65-.35 1.55-1.4-1.48-6.6-6.25-6.68-5.48-6.32-5.27-5.34-4.77-2.17-3.3-2.46-3.02-3.16-1.06-.92.35.7 1.4 1.06 1.62.28 2.46 1.97.99.42 2.17 3.23 2.6 7.8 6.68 4.56 4.28 5.13 3.72 3.51 2.81 2.74 3.3 1.05 2.46-.84.77-8.15-.77-1.75-.63-2.18-1.97-.28-2.31.07-2.46-1.27-.7-.98.84-3.23.07h-3.37l-1.83-1.97-1.12-1.68.42-2.96.84-1.82-1.12-1.2-2.95-.35-2.67-.91-1.55-1.9-1.05-2.03-.28-2.25.35-1.9.63-1.9-2.24-.84-2.67-.49-2.11-1.2-1.26-1.96-.43-1.54.07-1.9-1.47-.7-.42-1.34-1.06-2.6-.63-1.33-.98-2.32.63-2.53 2.1-1.2 3.17-.27 3.86.49 3.16 1.33 3.3-.35 3.45.28 2.52 1.55 1.34 3.37.98 2.88 2.1 2.1h2.89l4.07.36 3.73 2.1.9 4.64.78 3.51 1.69 3.66 2.88 1.75 4.21 1.06 1.34 2.03.07 3.65zm-30.2-82.46l.56 9.2 1.48 7.87 1.68 4.5.14 5.47 1.27 4.22 1.83 1.96 1.05.35.84-1.82 1.9-3.37 1.4-2.95.85-1.13-.28-1.75-1.55-2.11-1.76-1.69-.98-1.68.56-1.69.92-2.8 1.19-2.54.42-2.17-.07-2.18-1.4-1.83-4.5-4.56-1.76-2.53-1.12-2.39-.35-2.1.14-1.9-.98-3.3-1.4-2.18-.5-2.46-1.4-2.04-1.83-1.2-1.97-.13-1.2 1.05-.55 2.1-.28 1.7-.92 2.03-1.26 1.48-1.69 1.4-1.2 1.4.15 1.2.84 1.05 1.27 1.55.98 1.61-.5 2.25-1.54 1.4-.84 1.62-.63 1.9.63 1.68 1.33 1.69 1.9 1.69 1.4 1.26.57 1.2.2 2.45-.06 1.97.77 1.76 1.62 1.05h1.47l.63-1.34.07-4.5-.7-5.47-.77-4-.7-3.87-.07-2.6 1.19-.84 2.18.35.7 1.9zm-8.36 29.22l-5.83-4-7.65-6.19-4.57-4.14-4.84-5.06-4.29-3.44-1.33-2.25-1.48-3.72-1.61-1.69-1.62-2.95-1.33-1.82-1.69-.07-.07 2.25 2.18 5.12 3.37 4.99 7.02 8.71 10.4 8.15 10.88 8.57 2.95 2.95 1.41 1.47.14 1.27-1.4-.5-2.95-1.26-3.45-1.4-4.98-.99-4.08-.07-3.23-.77-1.12-1.12.35-1.83 1.54-.63.29-1.4-.99-.92-2.03-.63-3.17-.07-3.16-.28-1.47-.78-.5-1.75.36-2.11 1.26-1.62v-1.96l-1.4-1.48-2.18-1.2-2.95-1.54-2.6-1.82-1.12-2.11-.28-1.62-.14-2.38-1.13-1.13-2.39-.56-1.61-1.9-.7-1.68-.07-8.08h-1.55l-.91-.98-1.4-1.4-.78-1.62.35-2.25.84-1.97 1.9-.7 2.88.14 2.46.91 1.9.99 1.96.7 3.1-.28 2.31-.35 2.74.7 2.39 2.46 1.82 2.1 1.13 2.18.49 2.95.21 1.27 3.1.14h2.1l2.46.42 2.1.84 1.13 1.97-.07 2.8.07 3.1.28 2.6 1.61.98 2.67.14 1.27 1.34.07 1.96.63 2.32 1.4 1.34 2.46 2.1 1.76 1.4 1.68 2.04 1.06 1.9.2 1.97-.06 2.32-1.48 1.05-1.4.56zm-10.95-51.49l-1.9 3.59-.84 1.75-1.48.07-1.68-1.75-1.2-3.02-.7-5.2-.91-7.59.35-9.76.49-5.06.56-8.29.35-1.96v-1.76l-.91-.35-1.97 1.2-1.33 3.22-1.06 7.87-.35 7.87v8.22l.7 5.4.7 5.2 1.62 4.36 1.06 2.39.28 2.24-1.27 1.06-1.9-.64-2.66-2.74-1.83-2.87-.35-3.45 1.05-2.95.7-3.58.64-3.23-.84-2.18-1.76-.84-1.9-.7-.77-1.4-.98-3.45-.42-2.32-1.27-1.9-1.05-1.6-.84-1.84-.64-2.17 1.13-2.11 2.03-.98 2.4-.64.34-1.61-.91-2.6-1.47-1.97-.7-1.61.27-2.1 1.13-2.12 2.39-1.19 2.17-.07 1.76-1.12.63-2.18.84-1.83 1.48-1.26 1.97.07 2.1 1.96 1.13 2.53v3.1l.63 2.87 1.4 2.18 1.83 2.04 1.05 2.25-.35 2.24-1.75 1.4-.64 1.34.64 1.4 2.03 1.62 1.83 1.83.91 1.83.7 2.52-.49 2.11-1.12 2.53-1.9 1.4-1.61 1.55-.7 1.69.9 1.54 1.55.84 1.06 1.27 1.12 2.39-.56 2.8zm-23.32-18.82v14.33l-.5 1.61-.56.28-1.33-1.54-2.39-4.36-4.14-6.8-6.18-9.14-6.89-11.3-4-6.75-4.22-5.34-2.03-.63-2.32-.35-.56.91.77 1.97 1.05 2.24 1.83 1.48 1.69 1.05 1.05 1.62.5 3.51 2.66 4.85 2.6 3.93 4.07 5.62 4.36 6.18 3.65 4.5 2.53 2.74 1.82 3.44.99 2.88.14 1.82-1.97-.07-4.35-1.4-3.02-1.2-1.2-1.61-.14-3.3-.07-2.25-4-.63-2.67-.14-2.1-.92-1-1.96-.27-3.3-.63-3.3-2.11-2.11-3.58-2.11-1.4-1.54-.5-1.7.07-2.3.7-1.76.28-1.9-1.4-2.39-1.4-1.61-1.27-1.97-.77-2.18.14-2.32.2-3.16.29-3.44.91-1.75 1.76-1.34h1.61l2.18 1.2 2.88 1.26 2.95-.28 2.67.2 1.69 1.34 1.26 2.18 1.2 3.1 2.31 2.59 2.53 1.33 3.3 1.06 2.25.91.91 2.46-.35 1.62-.84 2.45-.77 1.97-1.2 2.32.21 2.1.99 2.88 1.75 1.13 2.67.35 1.55-.35 1.61.14 1.34.98zm-6.11-73.82l-1.48 4.84-1.76 6.54-1.47 6.39-.56 5.48-.07 5.76-.07 5.97.07 5.62.91 1.82 1.55.21 1.47-1.82 3.1-3.44 1.75-2.53 1.82-2.81.57-3.1-1.13-2.45-1.26-1.76.63-3.23 1.9-1.9 2.67-1.12 1.9-1.26-.15-2.53-1.47-1.9-2.67-2.6-1.06-.77-.49-1.12v-1.4l.7-2.12.78-1.12 1.2-2.18-.78-1.82-1.48-1.4-.63-1.55-.7-3.16-.14-3.23-.99-3.38-1.68-2.1-2.1-.35-1.41.84-1.4 2.1-.64 1.9-4.42-.14-1.55.42-1.26 1.27.2 1.33v2.18l.7 2.18.64 2.67-.28 1.47-4.07-.42-3.52.84-2.31 2.32.42 1.69 1.75 1.96 2.67 3.02 2.46 2.04 1.4 3.58-.2 3.58-1.27 2.6-.56 1.69.77 1.9.5 2.38-.57 1.62-.49 2.1-.63 1.7.63 1.6.91 1.76 1.27.85.63-1.27.5-3.44.2-7.73 1.4-7.23 2.6-9.83 2.18-6.19 1.76-4.42 1.61-.98.5 1.9z" class="st6" style="fill:#dcdcdd;fill-opacity:1"/>
    <path d="M68.02 290.84l2.39 1.12 1.75 1.69 1.13 1.47 1.33-.2 2.04-.92 2.88-.14 2.17 2.53.43 2.74-.43 4-.14 2.67.21 1.47 2.4.64 3.5-.5 2.74 1.27 1.13 2.74.7 3.02-.7 3.23-1.55 2.88-.7 2.1 1.83 2.04 2.74 3.1 2.17 2.8 1.4 2.67.15 3.37-1.48 4-.42 2.47-1.05 2.1-1.97-.63-1.75-3.23-3.24-5.55-2.24-4.35-2.95-4.36-2.6-6.04-1.76-4.35-1.82-6.6-1.69-3.73-.91-2.1-1.2-1.06-.98.56-.5 2.32v5.2l2.68 8.64 1.61 4 3.23 6.4 4.43 7.02 3.86 5.69 2.6 3.3 1.69 1.54.28 1.83-1.06.35-1.61-.84-5.55-2.18-3.16-1.76-1.05-1.4.2-2.6.43-2.32-.14-2.03-3.02-1.83-2.74-.35-2.67-1.55-.56-2.53-.07-3.86-.78-2.32-1.75-1.96-1.4-1.83-.92-2.39-.14-3.09-.98-1.9-1.83-2.8-1.4-1.97-1.7-2.46-.9-2.25.28-1.9.91-1.75 1.05-1.26 1.76-1.83.84-1.97.7-2.39.57-1.75 1.9-.63zm31.6-40.95l-1.68 2.8-1.48 3.17-1.61 4.7-.91 5.2-.28 5.41v25.29l1.05 3.65 1.33 2.25.35 1.54-.2 2.67-.36 2.18-.2 2.67v2.04l-1 .84-1.33-.63.21-1.69v-4.85l.07-3.93-1.12-3.86-2.1-2.6-1.97-1.34-.7-1.33v-1.4l.9-1.9 1-2.1.2-1.84-1.68-3.16-1.27-1.68-1.4-1.4.07-1.83 1.05-1.4.7-1 1.06-2.1v-2.67l-1.27-2.53-1.61-1.82-.42-1.69-.36-1.82.92-1.4 2.18-.78.9-1.55-.41-1.47-.92-2.04-1.05-1.4-.35-.64s.42-.77.7-.77c.28 0 .98-.63.98-.63l1.27-2.46 1.26-2.67 1.27-2.25 1.96-2.45s1.62-.78 1.83-.78c.21 0 2.46.14 2.46.14l1.68 2.18.36 2.25z" class="st6" style="fill:#dcdcdd;fill-opacity:1"/>
    <path d="M100.26 254.67l-1.48 3.02-.56 3.86-.7 5.34-.07 6.6.28 7.23-.14 5.06-.07 4.57-.07 4.84.77.99 1.62-.14 3.65-2.88 2.18-1.97.9-1.9-.2-2.17-1.55-1.76-1.26-1.83.35-2.24.98-1.83 1.69-1.55.63-1.82-1.26-1.27-1.69-1.05-1.47-1.05-1.2-1.76.5-1.26 1.12-1.69.91-.98.63-1.48-.56-1.12-.84-.77-.56-2.11.35-1.69.91-1.68-.14-1.34-1.26-1.47-1.55-.56zm-36.8-11.45l3.36 10.67 1.97 11.45 3.1 12.78 1.04 6.05.57 3.79 1.47 1.12 1.76.07 2.6.85 2.24 1.12 1.13-.91.42-1.97-1.55-3.1-1.4-1.6-.5-3.73 1.2-2.67 1.27-2.67 1.05-2.25-.14-2.1-1.76-1.48-2.53-1.61-2.24-2.18-.14-2.53.98-2.8 2.18-2.89 1.68-2.67.56-2.17-.42-2.67-1.05-1.4-2.1-.5-3.24.77-2.04.28-1.19-.35-.63-1.26.35-2.88.42-4.5.35-3.23-1.12-2.8-1.62-1.55-1.82-.42h-2.18l-1.69-.99-1.12-2.88-1.69-1.9-2.1-.63-2.46.78-.84 2.03-.36 2.46v2.04l-2.38 1.26-3.45 2.53-.7 1.76-.14 2.8 1.4 2.68 1.27 1.47 1.55 1.55-3.8 2.24-1.61 1.27-1.06 1.68.5 2.18 1.9 1.97 2.31 1.82 2.32 1.83 2.1 1.62 2.32 1.68 1.34 1.76.49 1.61-1.05 2.53-1.83 1.62-.28 2.17.35 2.25 1.83 1.76 3.23.56 1.4 1.2-.28 2.52-2.04 1.34-1.26 1.26.28 2.04 1.69 1.97 2.74.35 2.31-.64 1.48-1.19 1.26-2.04-.42-2.74-1.61-4.77-1.4-2.74-2.19-4.36-2.53-7.72-1.26-8.08-.28-6.6.28-4.36 1.2-1.75 1.05-.07.84 1.82z" class="st6" style="fill:#dcdcdd;fill-opacity:1"/>
  </g>
  <path d="M263.49 416.37V413h3.1c3.16 0 4.53-.04 5.84-.14 4.47-.37 7.9-1.56 9.86-3.42.66-.63.96-1.1 1.21-1.86.36-1.06.53-2.28.68-4.77.06-1.07.1-103.2.03-105.93-.1-4.1-.29-5.75-.84-7.14-.56-1.39-.98-2-1.83-2.64-1.42-1.07-3-1.57-5.76-1.83-1.47-.13-2.7-.16-7.56-.16h-4.73v-6.25h56.76c54.92 0 56.77 0 56.77.07l1.48 17.12 1.48 17.14v.1h-6l-.09-.26-.44-1.58c-2.18-7.7-4.22-13.12-5.91-15.7a19.76 19.76 0 0 0-9.85-7.22c-2.8-.91-6.68-1.44-11.86-1.61-.77-.03-8.66-.04-21-.04h-19.77v54.56l16.84-.01c12.12-.01 17-.03 17.41-.06 2-.17 3.3-.37 4.7-.73 2.24-.58 4.1-1.53 5.47-2.77 1.8-1.64 3.07-4.86 4.06-10.32.28-1.57.64-3.98.82-5.55l.07-.63h3.13l3.14-.02v47.75h-6.32l-.03-1.1c-.11-4.46-.59-7.61-1.5-9.9-.67-1.7-1.99-3.74-3.17-4.92-2.17-2.14-5.2-3.14-10.27-3.4-.5-.03-6.88-.04-17.57-.04h-16.79l.02 23.56c.01 24.1.01 24.07.17 26.65.23 3.92.67 6.32 1.41 7.74.76 1.47 2.67 3.05 4.76 3.94 1.37.6 2.96 1 4.67 1.18 1.26.14 1.7.15 6.02.17l4.4.02v6.77H263.5v-3.39zM239 350.52c-.18-.3-10.22-15.95-22.31-34.79l-21.98-34.25h-.56c-.3 0-1.23.04-2.04.07-2.92.13-4.87.13-9.15 0l-.73-.02v24.97c0 15.21.01 25.44.04 26.19.16 5.04.6 7.25 1.67 8.48.61.7 1.3 1.2 2.28 1.68 1.68.82 3.7 1.24 6.93 1.43.4.02 2.86.05 5.46.06l4.74.03v6.16H139.5v-6.18h3.92c6.45 0 8.41-.07 10.26-.38 2.12-.35 3.6-.98 4.65-2a4.96 4.96 0 0 0 1.53-2.92c.44-1.9.67-4.75.77-9.37.02-1.1.04-19.58.04-48.28 0-30.66.01-47.1.04-48.23.06-2.59.07-7.75 0-8.58-.16-2.34-.45-3.46-1.08-4.24-.3-.38-1.25-1.37-1.69-1.77-1.28-1.18-2.47-1.68-4.57-1.93-.52-.07-1.22-.07-7.18-.09l-6.6-.01V210.86h.77l4.5-.04a26639.15 26639.15 0 0 1 32.05-.32c21.8-.23 29.82-.16 36.1.32 3.69.28 6.72.72 9.14 1.33 3.93.98 8.4 2.96 12.14 5.38a32.45 32.45 0 0 1 8.87 8.2 29.26 29.26 0 0 1 3.42 6.34c1.66 4.29 2.34 8.8 2.27 15.07a27.93 27.93 0 0 1-.23 4.07 27.26 27.26 0 0 1-4.35 11.85 31.02 31.02 0 0 1-3.98 4.86c-4.36 4.43-8.18 6.86-13.74 8.77a86.51 86.51 0 0 1-8.12 2.2l-.95.22.07.12c.33.55 26.6 42.13 26.78 42.37l.67.93c1.03 1.4 2.15 3.04 4.9 7.11 3.39 5.05 4.9 7.05 6.69 8.78.97.95 1.58 1.43 2.82 2.21 2.85 1.79 3.98 2.23 6.7 2.62.86.12 3.2.39 4.72.53l1.15.11v3.58l.02 3.58h-32.66l-.33-.53zm-45.8-77.36c9.26-.23 13.74-1.06 19.3-3.59a23.26 23.26 0 0 0 6.38-4.07 25.9 25.9 0 0 0 8.14-14.67c.42-2.38.55-6.78.3-9.68-.45-5.33-2.09-9.39-5.32-13.17-.6-.7-2.1-2.2-2.86-2.85-4.2-3.6-8.8-5.56-14.82-6.29-2.1-.25-3.8-.35-7.56-.4-1.56-.03-2.91-.07-3.73-.12-4.53-.28-6.57-.22-10.25.32l-.63.1v54.33l1.17.03c.64.01 1.39.04 1.65.06.74.04 6.42.04 8.22 0z" style="fill:#bcbdbe;fill-opacity:1;stroke:#000;stroke-width:1.32291663;stroke-miterlimit:4;stroke-dasharray:none"/>
  <path d="M115.75 74.8c-4.92-7.8-22.62-4.5-22.62-4.5L49.1 80.29v56.9l26.34-5.83v-23.6c27.25-5.34 30.06-8.85 34.91-11.6 4.78-2.8 10.33-13.62 5.4-21.35zM75.57 98.48v-15.6s10.75-4.21 14.4.92c3.65 5.12.56 13.13-14.4 14.68zm100.1-43.34c-24.03.2-46.93 8.85-46.72 19.73.21 10.9 0 34.35 0 34.35s-1.05 10.12 21.08 7.52c22.12-2.53 46-4.08 48.32-17.63V65.04s1.33-10.11-22.69-9.9zm-4.43 46.36s0 5.12-8.78 4.77c-8.78-.35-6.89-3.72-6.89-3.72V70.24s-.56-4.22 9.49-4.5c0 0 6.32-.49 6.18 3.02zm72.9-4.71V50.5l-27.18.5v57.66l59.36-1.2v-11.3zm70.88 11.38l-27.54-1.06-.2-57.31 27.6.56zm88-26.83l-27.25-4.5-.14-8.7s0-4.36-9.34-4.22c0 0-6.04-.7-6.53 4.42-.56 5.13 0 29.08 0 29.08s-.63 7.38 8.64 7.8c0 0 7.23.56 7.23-3.23V90.33l27.26 4.84-.07 12.79s.98 8-17.7 7.72c-18.69-.28-52.26-2.24-52.75-20.01-.5-17.77 0-32.03 0-32.03s-.35-10.26 21.28-9.9c22.05.34 51 3.43 49.38 27.6zm17.36-16.93l58.3 11.87v9.62l-30.91-6.67v13.42l27.95 5.61v10.05l-27.95-5.7v14.27l34.28 7.51v10.4l-61.46-13.2z" class="st1" style="fill:#303c8e;fill-opacity:1;stroke-width:.70239037"/>
  <g style="fill:#303c8e;fill-opacity:1">
    <path d="M302.94 165.7l-14.9-.36.08-45.58 14.68-.14zm143.28-26.56l31.75 7.03v7.65l-17-3.86-.14 10.82 15.6 2.8-.21 8.5-15.53-3.65.07 11.52 18.97 4.08-.14 8.42-33.58-7.44zm-5.83 44.82v-8.3l-17.63-3.57v-37.37l-15.17-2.39v45.52zM386.38 128.19L368.05 126l-13.28 44.1 15.46 1.7 1.61-7.87 11.45 1.68 1.47 8.57 14.97 2.25zm-13.42 28.72l4.29-18.05 4.21 18.76zm-21.14-23.1c-.91-10.26-16.15-11.6-16.15-11.6l-21.92-1.75v45.87l14.61 1.05V148.7s8.43.7 14.61.49c6.32-.28 9.84-5.2 8.85-15.38zm-23.39 7.72v-12.92s8.22-.85 9.13 6.88c1.06 8.64-9.13 6.04-9.13 6.04zm-89.06-12.78s.7-10.82 20.51-10.75c19.8.07 18.05 11.6 18.05 11.6v5.4h-14.75v-6.32s-.07-3.1-4.07-3.1-4.99 1.76-4.99 3.3v26.2s.07 3.73 3.8 3.73c3.72 0 5.33-1.33 5.33-3.16v-9.55h14.61v10.32s.21 9.2-21.21 9.2c0 0-17.35 1.06-17.35-9.9.07-10.82.07-26.97.07-26.97zm-24.8 37.79l14.62-.57v-45.23l-15.04.56zm-10.81-44.25l-14.26 1.82-.14 23.18h-.7l-9.34-22.12-16.8 1.9.08 45.58 14.68-1.69V148.2h.63l9.7 21.22 16.29-1.69zm-89.42 13.2v36.95s-.2 6.81 11.45 6.81c11.66 0 26.2-4.85 26.2-15.03v-35.75l-14.19 2.8v34.85s.21 4.98-5.33 4.98c0 0-3.94.63-3.94-3.58v-34.77zm-10.53 47.06v-45.37l-22.4 4.84L78.02 160h-.77l-4-16.01-22.13 5.13v43.69l13.84-3.1v-30.9h.77l7.23 30.34 8.92-1.9 6.89-34.06h.7v32.31z" class="st1" style="fill:#303c8e;fill-opacity:1;stroke-width:1"/>
  </g>
  <path d="M481.4 203.62c-143.5-34.92-287.38-34.36-431.6.55" style="fill:none;stroke:#303c8e;stroke-width:3.969;stroke-linecap:butt;stroke-linejoin:miter;stroke-opacity:1;stroke-miterlimit:4;stroke-dasharray:none"/>
</svg>
